<?xml version="1.0" encoding="UTF-8"?>
<svg width="14px" height="18px" viewBox="0 0 14 18" version="1.1" xmlns="http://www.w3.org/2000/svg" xmlns:xlink="http://www.w3.org/1999/xlink">
    <!-- Generator: Sketch 51 (57462) - http://www.bohemiancoding.com/sketch -->
    <title>copy</title>
    <desc>Created with Sketch.</desc>
    <defs>
        <path d="M18.6896914,22.7720521 C18.6896914,22.8775138 18.6468611,22.9731108 18.5775936,23.0423424 C18.508362,23.1116099 18.4127649,23.1544402 18.3072316,23.1544402 L14.5661056,23.1544402 L10.8249437,23.1544402 C10.7194821,23.1544402 10.6238492,23.1116099 10.5546534,23.0423424 C10.4854218,22.9731108 10.4425556,22.8775138 10.4425556,22.7720521 L10.4425556,17.4057767 L10.4425556,12.0395371 C10.4425556,11.9340396 10.4854218,11.8384785 10.5546534,11.7692827 C10.6238492,11.7001228 10.7194821,11.6572925 10.8249437,11.6572925 L14.5661056,11.6572925 L18.3072316,11.6572925 C18.4127649,11.6572925 18.508362,11.7001228 18.5775936,11.7692827 C18.6468611,11.8384785 18.6896914,11.9340396 18.6896914,12.0395371 L18.6896914,17.4057767 L18.6896914,22.7720521 Z M18.3106214,24.1225099 L10.8281901,24.1225099 C10.468652,24.1225099 10.1304573,23.9823249 9.87587868,23.7277103 C9.62126416,23.4731676 9.4810791,23.134937 9.4810791,22.7753989 L9.4810791,12.0395479 C9.4810791,11.6800098 9.62126416,11.3418151 9.87587868,11.0872365 C10.1304573,10.832622 10.468652,10.6924369 10.8281901,10.6924369 L18.3106214,10.6924369 C18.668617,10.6924369 19.0059508,10.832622 19.2605294,11.0872365 C19.5150004,11.3417075 19.6560823,11.6797946 19.6577324,12.0391892 L19.6577324,22.7753989 C19.6577324,23.134937 19.5175114,23.4731676 19.2629328,23.7277103 C19.0083541,23.9823249 18.6701954,24.1225099 18.3106214,24.1225099 Z M21.1718099,21.3074913 C21.0322705,21.3074913 20.9015196,21.2536485 20.8036986,21.1558275 C20.7058775,21.0579705 20.651963,20.9272196 20.651963,20.7877161 C20.651963,20.6481409 20.7058775,20.5174259 20.8036986,20.4196048 C20.9015555,20.3217838 21.0323064,20.2679051 21.1718099,20.2679051 C21.2538117,20.2679051 21.3310068,20.2358361 21.3890824,20.1777246 C21.4472298,20.1195772 21.4792629,20.0423822 21.4792629,19.9604162 L21.4792629,9.2245652 C21.4792629,9.14263514 21.4472298,9.06540422 21.3890824,9.00725683 C21.3310068,8.94914532 21.2538117,8.91714811 21.1718099,8.91714811 L13.6893427,8.91714811 C13.6072333,8.91714811 13.5300741,8.94914532 13.4718909,9.0072927 C13.4137435,9.06540422 13.3817104,9.14259926 13.3817104,9.2245652 C13.3817104,9.36410457 13.3278317,9.4948196 13.2300107,9.59267652 C13.1321896,9.69053344 13.0014387,9.74441214 12.8618993,9.74441214 C12.72236,9.74441214 12.5916449,9.69053344 12.4938598,9.59267652 C12.3960746,9.4948196 12.3422318,9.36410457 12.3422318,9.2245652 C12.3422318,8.86502711 12.4824168,8.52686832 12.7370313,8.2722538 C12.99161,8.01767515 13.3298046,7.87749009 13.6893427,7.87749009 L21.1718099,7.87749009 C21.531348,7.87749009 21.8695427,8.01767515 22.1241213,8.2722538 C22.3787358,8.52686832 22.5189209,8.86502711 22.5189209,9.2245652 L22.5189209,19.9604162 C22.5189209,20.3199543 22.3787358,20.658149 22.1241213,20.9127276 C21.8695427,21.1673063 21.531348,21.3074913 21.1718099,21.3074913 Z" id="path-1"></path>
    </defs>
    <g id="Symbols" stroke="none" stroke-width="1" fill="none" fill-rule="evenodd">
        <g id="element/icon/light/copy" transform="translate(-9.000000, -7.000000)">
            <mask id="mask-2" fill="white">
                <use xlink:href="#path-1"></use>
            </mask>
            <use id="copy" fill="#FFFFFF" xlink:href="#path-1"></use>
        </g>
    </g>
</svg>