<?xml version="1.0" encoding="UTF-8"?>
<svg width="16px" height="12px" viewBox="0 0 16 12" version="1.1" xmlns="http://www.w3.org/2000/svg" xmlns:xlink="http://www.w3.org/1999/xlink">
    <!-- Generator: Sketch 51 (57462) - http://www.bohemiancoding.com/sketch -->
    <title>link</title>
    <desc>Created with Sketch.</desc>
    <defs>
        <path d="M8.15642227,8.01243894 C8.01487159,7.87088826 7.90071531,7.7073755 7.81783367,7.5278762 L8.32156472,7.02414514 C8.91865404,6.42713343 9.12329721,5.58481376 8.93456297,4.81986583 C8.90002896,4.67552139 8.85059486,4.53397071 8.78695914,4.39676588 L8.78478622,4.39125596 C8.76934291,4.3594381 8.75343398,4.32707701 8.73643859,4.29471592 C8.71889996,4.26064752 8.70019727,4.2277432 8.68048572,4.19483887 C8.66240386,4.16356424 8.64370116,4.13283285 8.62344638,4.10264468 C8.62010938,4.09713476 8.61684999,4.09170244 8.61242654,4.08619252 C8.59325821,4.05709082 8.57346906,4.02853235 8.55259344,4.00113795 C8.53451158,3.97537324 8.51534326,3.95061739 8.49501087,3.92593915 C8.48732802,3.91608337 8.47910194,3.90560676 8.47087586,3.89520775 C8.45496693,3.87596183 8.43789393,3.8567935 8.42089853,3.83762518 C8.38908067,3.80138386 8.35617635,3.76622901 8.32156472,3.73169499 C8.28703071,3.69708336 8.25187585,3.66417904 8.21571213,3.63236118 C8.19646621,3.61536578 8.17729789,3.59837039 8.15805196,3.58246146 C8.14765295,3.57423538 8.13717634,3.56593169 8.12732056,3.55824884 C8.10264232,3.53799406 8.07796408,3.51874813 8.05219937,3.50066628 C8.02472736,3.47979066 7.9962465,3.4600015 7.9671448,3.44083318 C7.96163488,3.43648732 7.95612495,3.43315033 7.95069264,3.42989094 C7.92042687,3.40955855 7.88969547,3.39093346 7.85849844,3.372774 C7.82551651,3.35298484 7.79261219,3.33435975 7.7586214,3.31682112 C7.72626031,3.29982573 7.69382161,3.2839168 7.66200375,3.2685511 L7.65657143,3.26630057 C7.51936661,3.20266485 7.37773833,3.15330836 7.23339389,3.11869674 C6.46852355,2.9299625 5.62620389,3.13468327 5.02911457,3.73169499 L2.4219901,6.33881946 C1.51440502,7.24640454 1.51440502,8.72360693 2.4219901,9.63126961 C3.32965278,10.5388547 4.80685517,10.5388547 5.71451786,9.63126961 L6.07281801,9.27289185 C6.18860398,9.42825614 6.31649626,9.5746959 6.45533078,9.71353042 C6.5941653,9.85236494 6.74068267,9.98025722 6.89596935,10.0960432 L6.5376692,10.4543433 C5.17617517,11.8158374 2.96033278,11.8158374 1.59891636,10.4543433 C0.236956712,9.0923837 0.237499944,6.87708454 1.59891636,5.51566812 L4.20604084,2.90854365 C5.44018581,1.67439867 7.37502217,1.55806947 8.74031881,2.56118573 L8.77050698,2.58369105 C8.77376637,2.58586398 8.7759393,2.58811451 8.77927629,2.59028743 C8.805041,2.60945576 8.83034008,2.62924491 8.85610479,2.6495773 C8.90002896,2.68465455 8.94278906,2.72089587 8.98500592,2.75876689 C9.0085977,2.77902167 9.03226709,2.80044053 9.05531564,2.82240261 C9.0855038,2.85034024 9.11561436,2.87944195 9.14471607,2.90854365 C9.17381777,2.93764535 9.20291947,2.96783351 9.2308571,2.99802168 C9.25281919,3.02107023 9.27423804,3.04466201 9.29457043,3.06825379 C9.33236384,3.11047066 9.36860516,3.15330836 9.40376001,3.19723253 C9.42292834,3.22191077 9.44209666,3.24658902 9.46079935,3.27181049 C9.46413635,3.27514749 9.4668525,3.27895011 9.46956866,3.28283034 L9.49153075,3.31247527 C10.494647,4.67769431 10.378861,6.6131515 9.14471607,7.84729648 L8.64044177,8.35157077 C8.46156331,8.26814589 8.29797295,8.15398962 8.15642227,8.01243894 Z M14.4401083,1.72874513 C15.8015247,3.09016155 15.8021456,5.30546071 14.4401083,6.66749796 L11.8330614,9.27454483 C10.7701121,10.3374942 9.1869795,10.5706958 7.89633842,9.97368412 C7.53252834,9.80629113 7.19285327,9.57308949 6.89430861,9.27454483 C6.59576395,8.97607778 6.36201908,8.63578187 6.19516933,8.27259263 C5.59815761,6.98187395 5.83135925,5.39881897 6.89430861,4.3358696 L7.39912614,3.83097447 C7.57420198,3.91276966 7.73825797,4.0263051 7.88260241,4.17064954 C8.02686925,4.31499398 8.14048229,4.47904998 8.22227748,4.65412581 L7.71745995,5.15894334 C7.12099147,5.75548943 6.9162707,6.59780909 7.1044617,7.36330026 C7.20162259,7.76226519 7.40626576,8.1402769 7.71745995,8.45147109 C8.02857655,8.76258769 8.40666586,8.96723086 8.80563079,9.06439174 C9.57112196,9.25266035 10.4134416,9.04793958 11.0099101,8.45147109 L13.6170346,5.84434662 C14.5251629,4.93621831 14.5246197,3.45948155 13.6170346,2.55181887 C12.7093719,1.64423379 11.2327127,1.64369056 10.3245068,2.55189647 L9.96620667,2.91019662 C9.85096393,2.75653964 9.72361488,2.60947904 9.5836939,2.46955805 C9.44377291,2.32963707 9.29671231,2.20236563 9.14305533,2.08712289 L9.50135548,1.72874513 C10.8633927,0.366785478 13.0781487,0.366785478 14.4401083,1.72874513 Z" id="path-1"></path>
    </defs>
    <g id="Page-1" stroke="none" stroke-width="1" fill="none" fill-rule="evenodd">
        <g id="docs-1440" transform="translate(-536.000000, -1299.000000)">
            <rect fill="#FFFFFF" x="0" y="0" width="1440" height="1435"></rect>
            <g id="element/icon/grey/link" transform="translate(536.000000, 1299.000000)">
                <mask id="mask-2" fill="white">
                    <use xlink:href="#path-1"></use>
                </mask>
                <use id="link" fill="#4932FF" xlink:href="#path-1"></use>
            </g>
        </g>
    </g>
</svg>